<?xml version="1.0" encoding="utf-8"?>
<!-- Generator: Adobe Illustrator 27.3.1, SVG Export Plug-In . SVG Version: 6.00 Build 0)  -->
<svg version="1.1" id="Layer_1" xmlns="http://www.w3.org/2000/svg" xmlns:xlink="http://www.w3.org/1999/xlink" x="0px" y="0px"
	 viewBox="0 0 576 512" style="enable-background:new 0 0 576 512;" xml:space="preserve">
<path d="M144,58.9c-4.1-4.5-9.9-7.1-16-7.1s-11.9,2.6-16,7.1l-59.8,65.2c-8.1,8.8-7.5,22.6,1.4,30.7c8.9,8.1,22.6,7.5,30.7-1.4
	l22-24v205.1c0,12,9.7,21.7,21.7,21.7s21.7-9.7,21.7-21.7V129.6l22,24.1c8.1,8.8,21.9,9.4,30.7,1.4c8.8-8.1,9.4-21.9,1.4-30.7
	L144,58.9L144,58.9z"/>
<path d="M320,134.1h160c17.7,0,32-14.3,32-32s-14.3-32-32-32H320c-17.7,0-32,14.3-32,32S302.3,134.1,320,134.1z"/>
<path d="M320,290.1h160c17.7,0,32-14.3,32-32s-14.3-32-32-32H320c-17.7,0-32,14.3-32,32S302.3,290.1,320,290.1z"/>
<path d="M320,446.1h160c17.7,0,32-14.3,32-32c0-17.7-14.3-32-32-32H320c-17.7,0-32,14.3-32,32C288,431.8,302.3,446.1,320,446.1z"/>
<path d="M111.9,453.1c4.1,4.5,9.9,7.1,16,7.1c6.1,0,11.9-2.6,16-7.1l59.8-65.2c8.1-8.8,7.5-22.6-1.4-30.7
	c-8.9-8.1-22.6-7.5-30.7,1.4l-22,24l0-205.1c0-12-9.7-21.7-21.7-21.7s-21.7,9.7-21.7,21.7l0,205.1l-22-24.1
	c-8.1-8.8-21.9-9.4-30.7-1.4c-8.8,8.1-9.4,21.9-1.4,30.7L111.9,453.1L111.9,453.1z"/>
</svg>
